<?xml version="1.0" encoding="UTF-8"?><svg id="Layer_2" xmlns="http://www.w3.org/2000/svg" viewBox="0 0 20 24"><g id="Layer_1-2"><path d="m20,0H0v24h14l6-6V0Zm-7,23H1V1h18v16h-6v6Zm1-5h4.59l-4.59,4.59v-4.59Zm-3,1H3v1h8v-1Zm0-3H3v1h8v-1Zm6-2v-1H3v1h14Zm0-4h-4v1h4v-1Zm-6.01,1H3v-.79c0-.72,0-1.61,1.31-1.92,1.48-.34,1.24-.42,1.16-.56-1.08-1.99-.71-3.17-.39-3.7.39-.65,1.09-1.03,1.92-1.03s1.52.37,1.91,1.01c.55.9.41,2.22-.38,3.71-.1.2-.19.26,1.12.56,1.35.31,1.35,1.21,1.35,1.94,0,0,0,.78,0,.78Zm-6.99-1h6c0-.55-.07-.63-.54-.73-.86-.2-1.63-.38-1.9-.97-.14-.31-.11-.66.09-1.04.61-1.15.76-2.15.41-2.73-.28-.46-.78-.53-1.05-.53-.48,0-.86.19-1.06.54-.35.59-.2,1.58.41,2.71.2.38.24.73.1,1.04-.27.6-1.04.77-1.85.96-.53.12-.59.2-.6.75Zm13-2v-1h-4v1h4Zm0-4h-4v1h4v-1Z" style="fill:#919191; fill-rule:evenodd; stroke-width:0px;"/></g></svg>